<svg width="16" height="16" viewBox="0 0 16 16" fill="none" xmlns="http://www.w3.org/2000/svg">
<g id="Icon">
<path id="Vector" d="M12.6667 6.66699V8.00033C12.6667 9.238 12.175 10.425 11.2999 11.3002C10.4247 12.1753 9.23772 12.667 8.00004 12.667M8.00004 12.667C6.76236 12.667 5.57538 12.1753 4.70021 11.3002C3.82504 10.425 3.33337 9.238 3.33337 8.00033V6.66699M8.00004 12.667V15.3337M5.33337 15.3337H10.6667M8.00004 0.666992C7.46961 0.666992 6.9609 0.877706 6.58583 1.25278C6.21075 1.62785 6.00004 2.13656 6.00004 2.66699V8.00032C6.00004 8.53076 6.21075 9.03947 6.58583 9.41454C6.9609 9.78961 7.46961 10.0003 8.00004 10.0003C8.53047 10.0003 9.03918 9.78961 9.41426 9.41454C9.78933 9.03947 10 8.53076 10 8.00032V2.66699C10 2.13656 9.78933 1.62785 9.41426 1.25278C9.03918 0.877706 8.53047 0.666992 8.00004 0.666992Z" stroke="#140E0E" stroke-linecap="round" stroke-linejoin="round"/>
</g>
</svg>
